<svg width="27" height="28" viewBox="0 0 27 28" fill="none" xmlns="http://www.w3.org/2000/svg">
<path fill-rule="evenodd" clip-rule="evenodd" d="M17.1026 17.2917C15.4938 16.7096 13.7316 16.4028 11.9359 16.4028C9.23928 16.4028 6.61798 17.0949 4.47859 18.3717C2.71474 19.4243 1.35972 20.826 0.547221 22.421C0.273844 22.9577 0.624853 23.5733 1.21447 23.6961L3.77505 24.2298C8.16493 25.1447 12.6702 25.3134 17.1026 24.7361L17.1026 23.4861H14.6582C13.0013 23.4861 11.6582 22.143 11.6582 20.4861C11.6582 18.8293 13.0013 17.4861 14.6582 17.4861H17.1026V17.2917Z" fill="white"/>
<path d="M20.1026 15.0417L20.1026 25.9306" stroke="white" stroke-width="2.5" stroke-linecap="round"/>
<path d="M25.5471 20.4861L14.6582 20.4861" stroke="white" stroke-width="2.5" stroke-linecap="round"/>
<circle cx="11.936" cy="6.87501" r="6.80556" fill="white"/>
</svg>
