<svg width="32" height="28" viewBox="0 0 32 28" fill="none" xmlns="http://www.w3.org/2000/svg">
<path d="M2.99811 5.2467L7.43298 13.0077C7.70983 13.4922 7.84825 13.7344 7.84825 14C7.84825 14.2656 7.70983 14.5078 7.43298 14.9923L2.99811 22.7533C1.75981 24.9203 1.14066 26.0039 1.62348 26.5412C2.1063 27.0785 3.24962 26.5783 5.53624 25.5779L27.8119 15.8323C29.6074 15.0468 30.5051 14.654 30.5051 14C30.5051 13.346 29.6074 12.9532 27.8119 12.1677L5.53624 2.4221C3.24962 1.42171 2.1063 0.921508 1.62348 1.45883C1.14066 1.99615 1.75981 3.07966 2.99811 5.2467Z" fill="#1ECC59" stroke="#00761A" stroke-width="1.5"/>
</svg>
