<svg width="32" height="32" viewBox="0 0 32 32" fill="none" xmlns="http://www.w3.org/2000/svg">
<circle cx="16" cy="16" r="15.5" fill="#1ECC59" stroke="#00761A"/>
<path d="M9.71432 12.5577C10.9903 12.5577 12.0596 11.5983 12.0596 10.3736C12.0596 9.14895 10.9903 8.18958 9.71432 8.18958C8.4383 8.18958 7.36908 9.14895 7.36908 10.3736C7.36908 11.5983 8.4383 12.5577 9.71432 12.5577Z" fill="#F4F4F4" stroke="#F4F4F4" stroke-width="0.5" stroke-linecap="round"/>
<path d="M22.2857 12.5577C23.5618 12.5577 24.631 11.5983 24.631 10.3736C24.631 9.14895 23.5618 8.18958 22.2857 8.18958C21.0097 8.18958 19.9405 9.14895 19.9405 10.3736C19.9405 11.5983 21.0097 12.5577 22.2857 12.5577Z" fill="#F4F4F4" stroke="#F4F4F4" stroke-width="0.5" stroke-linecap="round"/>
<path fill-rule="evenodd" clip-rule="evenodd" d="M8.30019 20.044C8.01921 20.044 7.87872 20.044 7.80372 20.1438C7.72871 20.2436 7.76549 20.3706 7.83904 20.6246C8.70564 23.6173 12.0305 25.8462 15.9999 25.8462C19.9694 25.8462 23.2942 23.6173 24.1608 20.6246C24.2344 20.3706 24.2712 20.2436 24.1962 20.1438C24.1212 20.044 23.9807 20.044 23.6997 20.044H8.30019Z" fill="#F4F4F4"/>
</svg>
