<svg width="186" height="185" viewBox="0 0 186 185" fill="none" xmlns="http://www.w3.org/2000/svg">
<g clip-path="url(#clip0_4_59)">
<circle cx="93" cy="92.5" r="92.5" fill="#A9A9A9"/>
<path d="M168.093 173.329C168.683 173.207 169.031 172.594 168.823 172.029C164.193 159.507 154.522 148.457 141.211 140.514C127.524 132.345 110.753 127.917 93.4998 127.917C76.2468 127.917 59.4759 132.345 45.7881 140.513C32.4778 148.457 22.8063 159.507 18.177 172.029C17.9681 172.594 18.3169 173.206 18.9065 173.329L85.3389 187.174C90.7216 188.296 96.2779 188.296 101.661 187.174L168.093 173.329Z" fill="#E8E8E8"/>
<circle cx="93.5" cy="75.6667" r="43.5417" fill="#E8E8E8"/>
</g>
<defs>
<clipPath id="clip0_4_59">
<rect x="0.5" width="185" height="185" rx="92.5" fill="white"/>
</clipPath>
</defs>
</svg>
